# xmcd
#
# Track frame offsets:
# 150
# 27103
# 52560
# 79581
# 107351
# 115359
# 143469
# 166579
# 191219
# 215179
#
# Disc length: 2994 seconds
#
# Revision: 0
# Processed by: cddbd v1.5.2PL0 Copyright (c) Steve Scherf et al.
# Submitted via: Audion 3.0.2 (http://www.panic.com/audion/)
#
DISCID=760bb00a
DTITLE=Alex Bugnon - Head Over Heels
DYEAR=1900
DGENRE=
TTITLE0=Elis
TTITLE1=Any love
TTITLE2=Winnie
TTITLE3=Missing You
TTITLE4=Earth Intelude
TTITLE5=Head Over Heels
TTITLE6=No Other Love
TTITLE7=Can't Get Over You
TTITLE8=Dance of the Ghosts
TTITLE9=Human Epilouge
EXTD=
EXTT0=
EXTT1=
EXTT2=
EXTT3=
EXTT4=
EXTT5=
EXTT6=
EXTT7=
EXTT8=
EXTT9=
PLAYORDER=
